<?xml version="1.0" encoding="utf-8"?>
<!-- Generator: Adobe Illustrator 16.0.0, SVG Export Plug-In . SVG Version: 6.00 Build 0)  -->
<!DOCTYPE svg PUBLIC "-//W3C//DTD SVG 1.1//EN" "http://www.w3.org/Graphics/SVG/1.1/DTD/svg11.dtd">
<svg version="1.1" id="Layer_1" xmlns="http://www.w3.org/2000/svg" xmlns:xlink="http://www.w3.org/1999/xlink" x="0px" y="0px"
	 width="237.329px" height="357.455px" viewBox="183.333 219.418 237.329 357.455"
	 enable-background="new 183.333 219.418 237.329 357.455" xml:space="preserve">
<g>
	<path fill="#FEFAEA" d="M363.333,342.135c-1.394-11.754-4.816-22.36-8.574-33.502c-6.646-19.701-16.691-42.64-28.961-56.505
		c-2.752-4.24-5.807-7.456-8.955-11.436c-6.389-8.077-14.689-15.935-25.408-16.83c-0.161-0.013-0.31,0.004-0.467,0.002
		c-6.027-2.755-12.556-3.637-18.731-0.717c-5.387,2.547-7.397,9.335-6.861,14.793c0.891,9.059,6.312,17.722,9.709,26.039
		c7.272,17.798,12.744,36.978,16.698,55.791c2.626,12.499,1.586,25.192,3.723,37.554c-0.873,0.838,0.98,15.672,0.636,16.979
		c-2.32,8.779-0.528,15.369-2.53,18.926c-0.354,1.59-3.405-2.398-3.205-0.691c0.264,2.249,1.224,3.979,2.535,5.187
		c-4.664,7.024,5.193,16.295,11.444,9.528c6.834-7.397,17.294-12.092,26.982-14.111c9.476-1.975,22.136-2.669,28.899-10.595
		c0.134-0.156,1.445-0.515,1.567-0.683c2.362-1.025,2.982-3.025,2.981-6.385C364.815,364.338,364.646,353.212,363.333,342.135z"/>
	<path fill="#FFEB92" d="M404.504,359.889c-11.127-7.476-23.093-12.089-36.599-12.277c-2.34-0.032-4.396,2.437-3.616,4.747
		c2.686,7.96,1.453,17.147-0.25,25.097c-0.457,2.134-0.151,3.082,1.426,3.734c-2.245,0.061-4.471,0.232-6.614,0.427
		c-9.847,0.893-19.597,2.426-29.456,3.284c-6.666,0.58-12.904,1.888-18.867,4.166c-4.378,0.559-8.553,2.746-11.743,6.114
		c-2.867,3.026-3.513,11.522,0.18,9.175c2.404-1.528,9.185-6.063,11.619-7.113c2.707,4.521,6.091,8.598,9.182,12.857
		c4.398,6.062,7.817,16.733,8.143,24.202c0.604,13.979,3.318,26.479,2.217,41.488c-0.8,10.877,0.193,20.883-2.217,31.453
		c-1.794,7.863-6.158,17.486-3.998,25.504c1.537,5.707,5.408,6.732,10.517,5.146c5.952-1.849,11.762-7.06,15.75-11.597
		c7.846-8.923,14.564-18.346,20.448-28.786c2.936,0.65,6.012-3.404,3.511-6.383c1.099-2.042,2.177-4.086,3.239-6.125
		c5.146-9.877,8.85-19.756,12.022-30.441c0.503-1.688,0.995-3.403,1.479-5.131c0.037-0.119,0.075-0.234,0.102-0.36
		c4.112-14.783,7.19-30.775,4.006-45.82c-1.51-7.125-3.343-12.591-9.187-16.913c-4.405-3.258-11.747-4.996-17.178-5.151
		c0.815-0.399-1.863-0.267-1.607-1.462c0.234-1.09,3.808-3.087,4.04-4.196c0.892-0.023,1.77-0.306,2.448-0.927
		c8.248-7.537,17.098-10.646,28.116-7.859C405.855,367.815,407.989,362.231,404.504,359.889z"/>
	<path fill="#EBCC1A" d="M330.258,459.009c-0.51-9.531-1.008-21.729-3.661-30.884c-2.04-7.042-3.343-14.607-7.957-20.426
		c-2.115-2.668-4.997-5.125-8.111-3.344c-4.82,2.757-5.205,11.324-5.739,16.094c-1.07,9.541-4.53,18.322-8.971,26.834
		c-4.884,9.36-10.1,18.639-15.781,27.544c-5.59,8.761-11.758,17.331-18.659,25.104c-7.448,8.392-16.334,15.431-24.956,22.553
		c-6.94,5.731-13.365,11.8-19.833,18.05c-3.539,3.419-7.621,7.516-12.18,10.451c-1.588,0.807-3.172,1.622-4.731,2.479
		c-1.712,0.683-3.478,1.157-5.301,1.317c-0.466,0.041-0.838,0.218-1.123,0.472c-1.729-1.511-4.255,1.064-2.556,2.729
		c0.947,0.929,1.769,1.942,2.518,3.008c0.079,0.17,0.157,0.341,0.275,0.501c0.167,0.225,0.333,0.448,0.499,0.674
		c1.906,2.979,3.403,6.245,5.46,9.146c2.887,4.072,10.116,1.719,14.927,2.404c11.288,1.611,17.803,2.766,28.747-0.095
		c12.262-3.204,31.053-10.654,40.364-19.24c10.801-9.96,18.972-13.433,28.255-24.757c5.188-6.328,10.628-8.807,15.068-15.742
		c1.413-0.22,1.533-11.924,2.076-13.297c0.977-2.475-0.422-4.475,0.042-7.139C330.526,483.073,330.913,471.252,330.258,459.009z"/>
	<path fill="#EBCC1A" d="M419.191,383.126c-0.807-11.861-17.176-26.371-28.703-18.678c-0.295,0.197-0.497,0.438-0.637,0.698
		c-0.83-0.196-1.675-0.331-2.535-0.365c-2.419-0.097-1.95,2.324,0.459,2.42c8.563,0.341,15.648,13.742,14.057,22.491
		c-0.562,0.418-1.911,1.426-1.757,2.268c0.019,0.102-0.147,1.464-0.128,1.566c-0.994,2.294-1.342,3.339-4.307,4.263
		c-1.643,0.513-1.703,2.662-0.48,3.417c1.393,6.263,3.694,13.734,1.126,19.798c-0.706,1.666,0.777,3.526,2.565,2.565
		C412.173,416.406,420.188,397.801,419.191,383.126z"/>
	<path fill="#F7DF29" d="M310.688,399.372c-1.438-3.51-8.688-4.696-12.332,2.938c-1.702,3.57-2.538-1.67-3.099,1.886
		c-3.643-14.826-5.085-29.274-14.98-41.373c-0.023-0.791-0.285-1.602-0.896-2.348c-4.177-5.106-13.706-9.599-21.054-8.385
		c-9.658-1.598-21.783,0.301-28.955,6.62c-0.605,0.533-3.665,0.926-3.823,1.526c-18.235,7.719-30.676,22.021-32.569,42.302
		c-0.024,0.262-0.017,0.508,0.012,0.744c-2.84,5.821-2.571,11.834-1.306,19.187c0.325,1.892,0.15,3.175,1.592,3.181
		c0.168,0.021,0.329,0.051,0.511,0.051c2.165,0,2.302-1.442,2.529-3.104c0.11-0.483,1.186-1.073,1.087-1.645
		c-0.291-1.691-0.389-3.324-0.323-4.904c0.99-0.332,1.811-1.127,2.088-2.514c0.797-3.984,3.143-7.59,4.496-11.384
		c3.269-3.865,3.89-7.876,7.923-11.277c1.572-1.325,3.417-3.421,2.55-4.714c7.588-5.229,15.143-10.5,24.177-12.947
		c0.726-0.197,1.285-0.517,1.708-0.91c6.957-1.23,13.848-1.323,20.67,0.698c11.653,6.956,19.518,17.394,21.979,31.193
		c3.018,16.926-7.985,32.062-13.087,47.346c-0.092,0.275-0.148,0.541-0.181,0.797c-14.736,20.701-33.017,38.527-50.851,56.657
		c-7.474,7.597-15.524,16.859-21.578,26.277c-2.745,4.271-10.833,14.324-9.365,14.452c0.346,0.03,0.323,0.574,0.513,0.808
		c-0.887,2.251,0.205,5.297,3.313,5.168c1.2-0.05,2.381-0.192,3.543-0.411c0.344-0.041,0.69-0.121,1.036-0.221
		c11.219-2.596,20.658-12.458,28.62-19.987c12.707-12.018,26.71-22.393,38.032-35.856c11.206-13.325,23.335-26.557,30.83-42.439
		c3.929-8.326,6.342-17.442,9.049-26.212c1.448-4.689,2.83-9.474,4.724-14.006c1.28-3.062,2.5-7.722,5.472-9.613
		C316.294,404.688,314.089,398.911,310.688,399.372z"/>
	<path fill="#936037" d="M414.489,369.149c-0.705-0.837-1.448-1.576-2.214-2.254c0.044-0.299-0.038-0.619-0.32-0.897
		c-12.467-12.318-28.311-23.014-46.5-18.435c-2.005-13.671-6.004-27.209-10.095-39.903c-7.245-22.483-17.54-44.524-32.86-62.685
		c-10.924-12.948-33.007-32.383-51.408-23.154c-7.674,3.849-8.32,13.024-6.738,20.439c1.37,6.421,4.578,12.714,7.188,18.715
		c3.374,7.76,6.961,15.42,10.063,23.296c7.335,18.621,10.792,39.685,12.157,59.564c0.475,6.926,0.561,13.926,0.728,20.867
		c0.141,5.894,0.988,20.71-0.533,27.627c-1.038-9.338-7.23-24.487-12.908-31.036c-10.951-12.634-27.806-12.799-42.68-8.096
		c-17.352,5.486-36.016,17.835-43.077,35.272c-2.757,6.809-4.224,14.022-4.923,21.323c-0.55,5.748-0.978,14.342,3.996,18.463
		c1.108,0.918,2.71-0.664,1.591-1.592c-0.067-0.056-0.123-0.123-0.188-0.181c4.146-13.479,8.99-26.754,18.603-37.378
		c7.986-8.829,19.055-14.941,30.962-16.07c11.831-1.122,22.645,4.266,29.371,13.925c6.838,9.818,8.039,22.019,5.716,33.485
		c-4.696,23.173-21.695,43.243-37.058,60.336c-8.12,9.035-16.638,17.649-25.284,26.178c-4.595,4.531-9.099,9.216-13.027,14.346
		c-4.335,5.661-7.924,11.839-12.043,17.654c-2.707,3.821-5.773,7.305-9.308,10.372c-0.436,0.378-0.443,0.854-0.23,1.231
		c-0.082,0.33-0.035,0.698,0.23,1.025c5.55,6.854,11.713,13.224,15.823,21.105c0.146,0.28,0.355,0.439,0.582,0.515
		c0.095,0.311,0.335,0.572,0.758,0.669c24.505,5.589,49.205,4.229,74.149-11.56c13.155-8.328,22.371-15.306,31.484-24.488
		c8.923-8.992,11.302-11.302,17.895-18.837c-0.236,1.836-1.562,6.386-1.884,8.208c-0.207,1.176-1.089,4.095,0.645,7.445
		c4.691,9.077,14.738,3.49,20.332-1.349c19.051-16.481,34.238-38.946,42.545-62.68c4.863-13.902,8.95-28.297,10.814-42.935
		c0.051-0.403,0.1-0.817,0.147-1.228c0.023-0.011,0.048-0.015,0.072-0.026C415.315,417.571,429.193,386.614,414.489,369.149z
		 M365.766,349.804c15.161-3.938,28.562,3.443,39.628,13.147c-13.529-4.368-31.209,6.103-39.764,16.326
		C367.242,369.582,367.05,359.668,365.766,349.804z M385.16,367.918c14.137,1.099,20.361,19.417,9.996,28.733
		c-1.112-2.933-2.621-5.697-4.652-8.192c-3.801-4.668-9.748-7.233-15.63-7.869c-2.377-0.257-4.763-0.344-7.152-0.313
		c4.078-4.682,10.155-9.5,16.781-12.646C384.674,367.78,384.882,367.896,385.16,367.918z M295.893,389.425
		c0.62-4.647,0.971-21.931,0.689-29.979c-0.45-12.864-1.152-25.549-3.266-38.272c-2.522-15.182-6.318-30.074-12.304-44.261
		c-2.655-6.293-5.536-12.49-8.26-18.754c-3.132-7.203-6.908-14.91-6.978-22.906c-0.113-13.091,13.841-14.876,23.643-11.944
		c11.973,3.582,22.396,13.017,30.521,22.139c16.881,18.955,27.167,43.323,34.667,67.265c6.691,21.364,12.789,45.299,8.547,67.757
		c-9.916,0.692-19.867,3.022-29.6,4.093c-12.654,1.393-33.304-0.739-38.076,15.239c-0.211-1.033-0.415-2.56-0.691-4.22
		C295.132,394.267,295.616,391.5,295.893,389.425z M305.015,536.081c-8.041,8.15-18.701,15.606-26.774,21.527
		c-20.276,14.868-49.546,19.842-74.938,14.497c0.001-0.054,0.011-0.101,0.008-0.155c-0.483-9.898-9.572-14.997-14.374-22.711
		c-0.271-0.438-0.633-0.687-1.021-0.802c8.788-8.817,14.237-20.416,22.285-29.889c8.615-10.143,18.767-18.992,27.869-28.701
		c15.383-16.404,30.713-33.943,39.88-54.712c8.126-18.412,8.734-40.627-6.571-55.582c-14.014-13.693-36.681-9.983-51.003,1.09
		c-14.294,11.052-21.059,27.023-26.307,43.736c-2.558-4.422-1.772-11.221-1.334-15.801c0.673-7.025,2.33-14.124,5.209-20.578
		c7.466-16.744,25.665-27.779,42.505-33.103c14.37-4.543,29.438-3.056,39.682,8.762c9.402,10.848,12.46,26.63,13.905,40.466
		c0.085,0.811,0.841,1.148,1.456,1.041c0.476,0.112,1.036-0.053,1.301-0.504c0.41,0.699,1.748,0.788,2.119-0.238
		c1.116-3.085,3.084-8.12,7.237-7.358c3.392,0.618,6.137,4.337,8.055,6.901c4.473,5.984,7.874,13.099,10.251,20.158
		c1.544,4.586,1.947,9.579,2.563,14.344c1.047,8.07,1.585,16.201,1.839,24.332c0.386,12.379-0.412,38.585-3.524,52.559
		C316.855,524.51,314.972,525.99,305.015,536.081z M387.9,457.529c-6.641,22.396-17.089,42.597-32.433,60.364
		c-3.682,4.263-7.648,8.27-11.771,12.104c-3.696,3.439-7.86,7.246-13.207,7.365c-11.14,0.248-3.635-20.717-2.502-26.087
		c2.414-11.438,2.852-23.628,3.151-35.274c0.339-13.156-0.421-26.332-2.11-39.379c-1.643-12.674-5.683-24.154-13.413-34.499
		c-2.491-3.333-5.831-7.048-10.242-7.411c-4.502-0.37-6.99,4.765-8.36,8.38c0.986-11.506,12.43-14.301,22.401-15.294
		c5.341-0.532,10.708-0.611,16.048-1.198c8.306-0.914,16.511-2.569,24.818-3.483c0.806-0.088,1.622-0.169,2.441-0.245
		c0.678-0.05,0.836-0.082,1.411-0.146c0.136-0.015,0.575,0,0.857-0.036c7.971-0.539,16.257,0.087,22.379,5.717
		c5.421,4.985,7.261,12.812,7.926,19.854C396.855,424.754,392.552,441.84,387.9,457.529z M397.29,423.771
		c0.838-8.123,1.021-16.972-1.359-24.834c0.01-0.007,0.018-0.011,0.024-0.017c12.345-9.765,6.287-29.369-7.894-32.793
		c8.24-3.036,16.917-3.12,23.431,3.034c8.105,7.659,7.379,20.975,4.403,30.687C412.911,409.594,406.321,418.832,397.29,423.771z"/>
	<path fill="#936037" d="M271.031,489.331c-17.551,22.038-39.913,39.296-61.333,57.333c-1.111,0.937,0.488,2.52,1.591,1.592
		c21.42-18.038,43.782-35.296,61.333-57.334C273.516,489.8,271.935,488.196,271.031,489.331z"/>
	<path fill="#936037" d="M308.188,420.226c-9.721,21.509-17.833,43.785-31.333,63.333c-0.827,1.197,1.124,2.32,1.942,1.137
		c13.5-19.548,21.613-41.825,31.333-63.333C310.724,420.05,308.785,418.905,308.188,420.226z"/>
</g>
<g>
	<path fill="#FEFAEA" d="M363.333,342.135c-1.394-11.754-4.816-22.36-8.574-33.502c-6.646-19.701-16.691-42.64-28.961-56.505
		c-2.752-4.24-5.807-7.456-8.955-11.436c-6.389-8.077-14.689-15.935-25.408-16.83c-0.161-0.013-0.31,0.004-0.467,0.002
		c-6.027-2.755-12.556-3.637-18.731-0.717c-5.387,2.547-7.397,9.335-6.861,14.793c0.891,9.059,6.312,17.722,9.709,26.039
		c7.272,17.798,12.744,36.978,16.698,55.791c2.626,12.499,1.586,25.192,3.723,37.554c-0.873,0.838,0.98,15.672,0.636,16.979
		c-2.32,8.779-0.528,15.369-2.53,18.926c-0.354,1.59-3.405-2.398-3.205-0.691c0.264,2.249,1.224,3.979,2.535,5.187
		c-4.664,7.024,5.193,16.295,11.444,9.528c6.834-7.397,17.294-12.092,26.982-14.111c9.476-1.975,22.136-2.669,28.899-10.595
		c0.134-0.156,1.445-0.515,1.567-0.683c2.362-1.025,2.982-3.025,2.981-6.385C364.815,364.338,364.646,353.212,363.333,342.135z"/>
	<path fill="#FFEB92" d="M404.504,359.889c-11.127-7.476-23.093-12.089-36.599-12.277c-2.34-0.032-4.396,2.437-3.616,4.747
		c2.686,7.96,1.453,17.147-0.25,25.097c-0.457,2.134-0.151,3.082,1.426,3.734c-2.245,0.061-4.471,0.232-6.614,0.427
		c-9.847,0.893-19.597,2.426-29.456,3.284c-6.666,0.58-12.904,1.888-18.867,4.166c-4.378,0.559-8.553,2.746-11.743,6.114
		c-2.867,3.026-3.513,11.522,0.18,9.175c2.404-1.528,9.185-6.063,11.619-7.113c2.707,4.521,6.091,8.598,9.182,12.857
		c4.398,6.062,7.817,16.733,8.143,24.202c0.604,13.979,3.318,26.479,2.217,41.488c-0.8,10.877,0.193,20.883-2.217,31.453
		c-1.794,7.863-6.158,17.486-3.998,25.504c1.537,5.707,5.408,6.732,10.517,5.146c5.952-1.849,11.762-7.06,15.75-11.597
		c7.846-8.923,14.564-18.346,20.448-28.786c2.936,0.65,6.012-3.404,3.511-6.383c1.099-2.042,2.177-4.086,3.239-6.125
		c5.146-9.877,8.85-19.756,12.022-30.441c0.503-1.688,0.995-3.403,1.479-5.131c0.037-0.119,0.075-0.234,0.102-0.36
		c4.112-14.783,7.19-30.775,4.006-45.82c-1.51-7.125-3.343-12.591-9.187-16.913c-4.405-3.258-11.747-4.996-17.178-5.151
		c0.815-0.399-1.863-0.267-1.607-1.462c0.234-1.09,3.808-3.087,4.04-4.196c0.892-0.023,1.77-0.306,2.448-0.927
		c8.248-7.537,17.098-10.646,28.116-7.859C405.855,367.815,407.989,362.231,404.504,359.889z"/>
	<path fill="#EBCC1A" d="M330.258,459.009c-0.51-9.531-1.008-21.729-3.661-30.884c-2.04-7.042-3.343-14.607-7.957-20.426
		c-2.115-2.668-4.997-5.125-8.111-3.344c-4.82,2.757-5.205,11.324-5.739,16.094c-1.07,9.541-4.53,18.322-8.971,26.834
		c-4.884,9.36-10.1,18.639-15.781,27.544c-5.59,8.761-11.758,17.331-18.659,25.104c-7.448,8.392-16.334,15.431-24.956,22.553
		c-6.94,5.731-13.365,11.8-19.833,18.05c-3.539,3.419-7.621,7.516-12.18,10.451c-1.588,0.807-3.172,1.622-4.731,2.479
		c-1.712,0.683-3.478,1.157-5.301,1.317c-0.466,0.041-0.838,0.218-1.123,0.472c-1.729-1.511-4.255,1.064-2.556,2.729
		c0.947,0.929,1.769,1.942,2.518,3.008c0.079,0.17,0.157,0.341,0.275,0.501c0.167,0.225,0.333,0.448,0.499,0.674
		c1.906,2.979,3.403,6.245,5.46,9.146c2.887,4.072,10.116,1.719,14.927,2.404c11.288,1.611,17.803,2.766,28.747-0.095
		c12.262-3.204,31.053-10.654,40.364-19.24c10.801-9.96,18.972-13.433,28.255-24.757c5.188-6.328,10.628-8.807,15.068-15.742
		c1.413-0.22,1.533-11.924,2.076-13.297c0.977-2.475-0.422-4.475,0.042-7.139C330.526,483.073,330.913,471.252,330.258,459.009z"/>
	<path fill="#EBCC1A" d="M419.191,383.126c-0.807-11.861-17.176-26.371-28.703-18.678c-0.295,0.197-0.497,0.438-0.637,0.698
		c-0.83-0.196-1.675-0.331-2.535-0.365c-2.419-0.097-1.95,2.324,0.459,2.42c8.563,0.341,15.648,13.742,14.057,22.491
		c-0.562,0.418-1.911,1.426-1.757,2.268c0.019,0.102-0.147,1.464-0.128,1.566c-0.994,2.294-1.342,3.339-4.307,4.263
		c-1.643,0.513-1.703,2.662-0.48,3.417c1.393,6.263,3.694,13.734,1.126,19.798c-0.706,1.666,0.777,3.526,2.565,2.565
		C412.173,416.406,420.188,397.801,419.191,383.126z"/>
	<path fill="#F7DF29" d="M310.688,399.372c-1.438-3.51-8.688-4.696-12.332,2.938c-1.702,3.57-2.538-1.67-3.099,1.886
		c-3.643-14.826-5.085-29.274-14.98-41.373c-0.023-0.791-0.285-1.602-0.896-2.348c-4.177-5.106-13.706-9.599-21.054-8.385
		c-9.658-1.598-21.783,0.301-28.955,6.62c-0.605,0.533-3.665,0.926-3.823,1.526c-18.235,7.719-30.676,22.021-32.569,42.302
		c-0.024,0.262-0.017,0.508,0.012,0.744c-2.84,5.821-2.571,11.834-1.306,19.187c0.325,1.892,0.15,3.175,1.592,3.181
		c0.168,0.021,0.329,0.051,0.511,0.051c2.165,0,2.302-1.442,2.529-3.104c0.11-0.483,1.186-1.073,1.087-1.645
		c-0.291-1.691-0.389-3.324-0.323-4.904c0.99-0.332,1.811-1.127,2.088-2.514c0.797-3.984,3.143-7.59,4.496-11.384
		c3.269-3.865,3.89-7.876,7.923-11.277c1.572-1.325,3.417-3.421,2.55-4.714c7.588-5.229,15.143-10.5,24.177-12.947
		c0.726-0.197,1.285-0.517,1.708-0.91c6.957-1.23,13.848-1.323,20.67,0.698c11.653,6.956,19.518,17.394,21.979,31.193
		c3.018,16.926-7.985,32.062-13.087,47.346c-0.092,0.275-0.148,0.541-0.181,0.797c-14.736,20.701-33.017,38.527-50.851,56.657
		c-7.474,7.597-15.524,16.859-21.578,26.277c-2.745,4.271-10.833,14.324-9.365,14.452c0.346,0.03,0.323,0.574,0.513,0.808
		c-0.887,2.251,0.205,5.297,3.313,5.168c1.2-0.05,2.381-0.192,3.543-0.411c0.344-0.041,0.69-0.121,1.036-0.221
		c11.219-2.596,20.658-12.458,28.62-19.987c12.707-12.018,26.71-22.393,38.032-35.856c11.206-13.325,23.335-26.557,30.83-42.439
		c3.929-8.326,6.342-17.442,9.049-26.212c1.448-4.689,2.83-9.474,4.724-14.006c1.28-3.062,2.5-7.722,5.472-9.613
		C316.294,404.688,314.089,398.911,310.688,399.372z"/>
	<path fill="#936037" d="M414.489,369.149c-0.705-0.837-1.448-1.576-2.214-2.254c0.044-0.299-0.038-0.619-0.32-0.897
		c-12.467-12.318-28.311-23.014-46.5-18.435c-2.005-13.671-6.004-27.209-10.095-39.903c-7.245-22.483-17.54-44.524-32.86-62.685
		c-10.924-12.948-33.007-32.383-51.408-23.154c-7.674,3.849-8.32,13.024-6.738,20.439c1.37,6.421,4.578,12.714,7.188,18.715
		c3.374,7.76,6.961,15.42,10.063,23.296c7.335,18.621,10.792,39.685,12.157,59.564c0.475,6.926,0.561,13.926,0.728,20.867
		c0.141,5.894,0.988,20.71-0.533,27.627c-1.038-9.338-7.23-24.487-12.908-31.036c-10.951-12.634-27.806-12.799-42.68-8.096
		c-17.352,5.486-36.016,17.835-43.077,35.272c-2.757,6.809-4.224,14.022-4.923,21.323c-0.55,5.748-0.978,14.342,3.996,18.463
		c1.108,0.918,2.71-0.664,1.591-1.592c-0.067-0.056-0.123-0.123-0.188-0.181c4.146-13.479,8.99-26.754,18.603-37.378
		c7.986-8.829,19.055-14.941,30.962-16.07c11.831-1.122,22.645,4.266,29.371,13.925c6.838,9.818,8.039,22.019,5.716,33.485
		c-4.696,23.173-21.695,43.243-37.058,60.336c-8.12,9.035-16.638,17.649-25.284,26.178c-4.595,4.531-9.099,9.216-13.027,14.346
		c-4.335,5.661-7.924,11.839-12.043,17.654c-2.707,3.821-5.773,7.305-9.308,10.372c-0.436,0.378-0.443,0.854-0.23,1.231
		c-0.082,0.33-0.035,0.698,0.23,1.025c5.55,6.854,11.713,13.224,15.823,21.105c0.146,0.28,0.355,0.439,0.582,0.515
		c0.095,0.311,0.335,0.572,0.758,0.669c24.505,5.589,49.205,4.229,74.149-11.56c13.155-8.328,22.371-15.306,31.484-24.488
		c8.923-8.992,11.302-11.302,17.895-18.837c-0.236,1.836-1.562,6.386-1.884,8.208c-0.207,1.176-1.089,4.095,0.645,7.445
		c4.691,9.077,14.738,3.49,20.332-1.349c19.051-16.481,34.238-38.946,42.545-62.68c4.863-13.902,8.95-28.297,10.814-42.935
		c0.051-0.403,0.1-0.817,0.147-1.228c0.023-0.011,0.048-0.015,0.072-0.026C415.315,417.571,429.193,386.614,414.489,369.149z
		 M365.766,349.804c15.161-3.938,28.562,3.443,39.628,13.147c-13.529-4.368-31.209,6.103-39.764,16.326
		C367.242,369.582,367.05,359.668,365.766,349.804z M385.16,367.918c14.137,1.099,20.361,19.417,9.996,28.733
		c-1.112-2.933-2.621-5.697-4.652-8.192c-3.801-4.668-9.748-7.233-15.63-7.869c-2.377-0.257-4.763-0.344-7.152-0.313
		c4.078-4.682,10.155-9.5,16.781-12.646C384.674,367.78,384.882,367.896,385.16,367.918z M295.893,389.425
		c0.62-4.647,0.971-21.931,0.689-29.979c-0.45-12.864-1.152-25.549-3.266-38.272c-2.522-15.182-6.318-30.074-12.304-44.261
		c-2.655-6.293-5.536-12.49-8.26-18.754c-3.132-7.203-6.908-14.91-6.978-22.906c-0.113-13.091,13.841-14.876,23.643-11.944
		c11.973,3.582,22.396,13.017,30.521,22.139c16.881,18.955,27.167,43.323,34.667,67.265c6.691,21.364,12.789,45.299,8.547,67.757
		c-9.916,0.692-19.867,3.022-29.6,4.093c-12.654,1.393-33.304-0.739-38.076,15.239c-0.211-1.033-0.415-2.56-0.691-4.22
		C295.132,394.267,295.616,391.5,295.893,389.425z M305.015,536.081c-8.041,8.15-18.701,15.606-26.774,21.527
		c-20.276,14.868-49.546,19.842-74.938,14.497c0.001-0.054,0.011-0.101,0.008-0.155c-0.483-9.898-9.572-14.997-14.374-22.711
		c-0.271-0.438-0.633-0.687-1.021-0.802c8.788-8.817,14.237-20.416,22.285-29.889c8.615-10.143,18.767-18.992,27.869-28.701
		c15.383-16.404,30.713-33.943,39.88-54.712c8.126-18.412,8.734-40.627-6.571-55.582c-14.014-13.693-36.681-9.983-51.003,1.09
		c-14.294,11.052-21.059,27.023-26.307,43.736c-2.558-4.422-1.772-11.221-1.334-15.801c0.673-7.025,2.33-14.124,5.209-20.578
		c7.466-16.744,25.665-27.779,42.505-33.103c14.37-4.543,29.438-3.056,39.682,8.762c9.402,10.848,12.46,26.63,13.905,40.466
		c0.085,0.811,0.841,1.148,1.456,1.041c0.476,0.112,1.036-0.053,1.301-0.504c0.41,0.699,1.748,0.788,2.119-0.238
		c1.116-3.085,3.084-8.12,7.237-7.358c3.392,0.618,6.137,4.337,8.055,6.901c4.473,5.984,7.874,13.099,10.251,20.158
		c1.544,4.586,1.947,9.579,2.563,14.344c1.047,8.07,1.585,16.201,1.839,24.332c0.386,12.379-0.412,38.585-3.524,52.559
		C316.855,524.51,314.972,525.99,305.015,536.081z M387.9,457.529c-6.641,22.396-17.089,42.597-32.433,60.364
		c-3.682,4.263-7.648,8.27-11.771,12.104c-3.696,3.439-7.86,7.246-13.207,7.365c-11.14,0.248-3.635-20.717-2.502-26.087
		c2.414-11.438,2.852-23.628,3.151-35.274c0.339-13.156-0.421-26.332-2.11-39.379c-1.643-12.674-5.683-24.154-13.413-34.499
		c-2.491-3.333-5.831-7.048-10.242-7.411c-4.502-0.37-6.99,4.765-8.36,8.38c0.986-11.506,12.43-14.301,22.401-15.294
		c5.341-0.532,10.708-0.611,16.048-1.198c8.306-0.914,16.511-2.569,24.818-3.483c0.806-0.088,1.622-0.169,2.441-0.245
		c0.678-0.05,0.836-0.082,1.411-0.146c0.136-0.015,0.575,0,0.857-0.036c7.971-0.539,16.257,0.087,22.379,5.717
		c5.421,4.985,7.261,12.812,7.926,19.854C396.855,424.754,392.552,441.84,387.9,457.529z M397.29,423.771
		c0.838-8.123,1.021-16.972-1.359-24.834c0.01-0.007,0.018-0.011,0.024-0.017c12.345-9.765,6.287-29.369-7.894-32.793
		c8.24-3.036,16.917-3.12,23.431,3.034c8.105,7.659,7.379,20.975,4.403,30.687C412.911,409.594,406.321,418.832,397.29,423.771z"/>
	<path fill="#936037" d="M271.031,489.331c-17.551,22.038-39.913,39.296-61.333,57.333c-1.111,0.937,0.488,2.52,1.591,1.592
		c21.42-18.038,43.782-35.296,61.333-57.334C273.516,489.8,271.935,488.196,271.031,489.331z"/>
	<path fill="#936037" d="M308.188,420.226c-9.721,21.509-17.833,43.785-31.333,63.333c-0.827,1.197,1.124,2.32,1.942,1.137
		c13.5-19.548,21.613-41.825,31.333-63.333C310.724,420.05,308.785,418.905,308.188,420.226z"/>
</g>
</svg>
